<?xml version="1.0" encoding="utf-8"?>
<!-- Generator: Adobe Illustrator 23.0.5, SVG Export Plug-In . SVG Version: 6.00 Build 0)  -->
<svg version="1.1" id="Layer_1" xmlns="http://www.w3.org/2000/svg" xmlns:xlink="http://www.w3.org/1999/xlink" x="0px" y="0px"
	 viewBox="0 0 118 60" style="enable-background:new 0 0 118 60;" xml:space="preserve">
<style type="text/css">
	.st0{fill:#FFFFFF;}
</style>
<g>
	<g>
		<g>
			<g>
				<path class="st0" d="M41.87,31.14c-0.01,0-0.01,0-0.02,0c-5.94-0.14-8.76-4.92-8.87-5.12c-0.18-0.32-0.07-0.72,0.24-0.91
					c0.32-0.18,0.73-0.07,0.91,0.24c0.09,0.16,2.11,3.55,6.3,4.31c-0.75-1.12-1.62-2.77-1.35-4.04c0.08-0.36,0.42-0.59,0.79-0.51
					c0.36,0.08,0.59,0.43,0.51,0.79c-0.22,1.04,1.1,3.09,1.98,4.14c0.17,0.2,0.2,0.48,0.09,0.72
					C42.36,30.99,42.13,31.14,41.87,31.14z"/>
			</g>
			<g>
				<g>
					<path class="st0" d="M38.96,26.56c-8.31,0-15.7-2.15-21.07-6.18c-0.18-0.14-0.36-0.27-0.53-0.4c-1.64-1.2-3.33-2.44-2.52-4.93
						c0.44-1.36,1.75-2.82,4.01-4.47c3.03-2.2,6.99-3.35,10.84-3.17c5.59,0.28,11.44,3.11,16.48,7.97l0.24,0.23
						c1.32,1.28,2.68,2.6,4.32,2.68c2.19,0.13,3.95-2.21,4.18-4.37c0.26-2.44-0.78-4.89-1.69-7.06c-0.1-0.24-0.05-0.51,0.12-0.71
						c0.17-0.19,0.44-0.27,0.69-0.19c1.73,0.54,3.28,1.74,4.25,3.28l0.09,0.15c0.18,0.3,0.35,0.58,0.56,0.68
						c0.5,0.25,1.22-0.59,1.58-1.2c1.48-2.52,2.66-5.22,3.51-8.01c0.09-0.3,0.39-0.49,0.69-0.47c0.31,0.03,0.56,0.27,0.6,0.58
						c0.98,7.6-1.42,15.06-6.25,19.46c-2.89,2.64-6.83,4.45-11.7,5.37c-1.6,0.3-3.33,0.51-5.15,0.63
						C41.11,26.52,40.03,26.56,38.96,26.56z M28.84,8.73c-3.31,0-6.63,1.05-9.21,2.93c-2.48,1.8-3.28,3.06-3.52,3.8
						c-0.49,1.5,0.32,2.18,2.04,3.44c0.18,0.13,0.36,0.27,0.55,0.4c5.8,4.36,14.13,6.42,23.43,5.81c1.77-0.12,3.45-0.32,4.99-0.61
						l0,0c4.62-0.87,8.34-2.57,11.05-5.04c3.84-3.5,6.02-9.09,6.03-15.1c-0.72,1.79-1.57,3.53-2.54,5.19
						c-0.94,1.6-2.2,2.26-3.31,1.73c-0.56-0.27-0.87-0.78-1.12-1.18l-0.09-0.14c-0.51-0.82-1.23-1.53-2.06-2.05
						c0.73,1.87,1.37,4,1.14,6.16c-0.3,2.81-2.62,5.7-5.58,5.56c-2.14-0.11-3.76-1.68-5.18-3.06l-0.23-0.23
						c-4.81-4.64-10.35-7.34-15.62-7.6C29.35,8.74,29.1,8.73,28.84,8.73z"/>
				</g>
			</g>
			<g>
				<path class="st0" d="M43.17,14.01c-0.29,0-0.56-0.19-0.64-0.48c-1-3.45,0.35-6.43,1.14-7.77C36.65,3.4,33.16,8.52,33.01,8.74
					c-0.2,0.31-0.61,0.39-0.92,0.19c-0.31-0.2-0.39-0.61-0.19-0.92c0.04-0.07,4.48-6.63,13.04-3.2c0.19,0.08,0.34,0.24,0.39,0.44
					c0.06,0.2,0.01,0.42-0.11,0.58c-0.03,0.03-2.54,3.39-1.41,7.33c0.1,0.35-0.1,0.72-0.45,0.82C43.3,14,43.23,14.01,43.17,14.01z"
					/>
			</g>
			<g>
				<g>
					<path class="st0" d="M27.79,25.18c-0.28,0-0.54-0.18-0.63-0.46c-0.11-0.35,0.08-0.72,0.43-0.84c7.77-2.48,5.82-9.06,5.74-9.34
						c-0.11-0.35,0.09-0.72,0.44-0.83c0.35-0.11,0.72,0.09,0.83,0.44c0.03,0.08,2.4,8.13-6.6,11
						C27.93,25.17,27.86,25.18,27.79,25.18z"/>
				</g>
			</g>
		</g>
		<g>
			<path class="st0" d="M26.03,17.21c-1.27,0-2.43-1.01-2.68-2.33c-0.13-0.71,0.03-1.41,0.44-1.92c0.39-0.49,0.95-0.77,1.59-0.8
				c1.31-0.06,2.53,0.97,2.78,2.33l0,0c0.13,0.71-0.03,1.41-0.44,1.92c-0.39,0.49-0.95,0.77-1.59,0.79
				C26.09,17.21,26.06,17.21,26.03,17.21z M25.48,13.49c-0.01,0-0.03,0-0.04,0c-0.25,0.01-0.46,0.11-0.61,0.3
				c-0.17,0.22-0.24,0.52-0.17,0.85c0.13,0.7,0.78,1.24,1.42,1.24c0.25-0.01,0.46-0.11,0.61-0.3c0.17-0.21,0.24-0.53,0.17-0.85
				C26.72,14.05,26.1,13.49,25.48,13.49z"/>
		</g>
	</g>
	<g>
		<g>
			<path class="st0" d="M8.87,31.03c1.34-0.32,3.46-0.61,5.62-0.72c3.07-0.15,5.05,0.25,6.53,1.35c1.24,0.84,1.98,2.19,1.98,4.07
				c0,2.3-1.52,4.42-4.03,5.5c0,0.02,0,0.05,0,0.07c2.26,0.43,4.91,2.1,4.91,5.64c0,2.05-0.81,3.66-2.01,4.91
				c-1.66,1.63-4.34,2.52-8.23,2.71c-2.12,0.1-3.74,0.01-4.77-0.1C8.87,46.64,8.87,38.83,8.87,31.03z M11.95,40.66
				c0.93-0.04,1.86-0.08,2.79-0.13c3.25-0.16,5.16-1.99,5.16-4.29c0-2.79-2.12-3.74-5.23-3.59c-1.41,0.07-2.22,0.21-2.72,0.34
				C11.95,35.55,11.95,38.11,11.95,40.66z M11.95,52.07c0.6,0.08,1.48,0.08,2.58,0.02c3.18-0.16,6.11-1.52,6.11-4.98
				c0-3.25-2.79-4.4-6.15-4.24c-0.85,0.04-1.7,0.08-2.54,0.12C11.95,46.02,11.95,49.05,11.95,52.07z"/>
			<path class="st0" d="M31.38,31.19c0.04,1.06-0.74,1.97-1.98,2.08c-1.1,0.09-1.87-0.69-1.87-1.75c0-1.1,0.81-2.01,1.94-2.11
				C30.63,29.31,31.38,30.1,31.38,31.19z M27.91,53.39c0-5.7,0-11.4,0-17.1c1.04-0.09,2.07-0.17,3.11-0.27c0,5.7,0,11.4,0,17.1
				C29.99,53.21,28.95,53.3,27.91,53.39z"/>
			<path class="st0" d="M50.91,34.01c-0.07,1.24-0.14,2.63-0.14,4.71c0,3.31,0,6.62,0,9.93c0,3.92-0.78,6.41-2.44,8.07
				c-1.66,1.73-4.06,2.49-6.22,2.71c-2.05,0.21-4.31-0.06-5.69-0.84c0.26-0.81,0.52-1.63,0.78-2.44c1.13,0.6,2.9,1.05,5.02,0.83
				c3.18-0.33,5.51-2.24,5.51-6.55c0-0.64,0-1.27,0-1.91c-0.02,0-0.05,0.01-0.07,0.01c-0.95,1.69-2.79,3.16-5.44,3.44
				c-4.24,0.44-7.28-2.88-7.28-7.61c0-5.79,3.78-9.44,7.7-9.85c2.97-0.31,4.59,1.07,5.33,2.4c0.02,0,0.05-0.01,0.07-0.01
				c0.05-0.86,0.09-1.73,0.14-2.59C49.1,34.21,50.01,34.11,50.91,34.01z M47.7,41.11c0-0.53-0.04-0.99-0.18-1.39
				c-0.56-1.74-2.08-3.06-4.35-2.82c-2.97,0.31-5.09,3.03-5.09,6.98c0,3.36,1.7,5.98,5.05,5.63c1.91-0.2,3.64-1.59,4.31-3.64
				c0.18-0.55,0.25-1.16,0.25-1.69C47.7,43.16,47.7,42.13,47.7,41.11z"/>
			<path class="st0" d="M63.53,25.92c4.27-0.46,8.55-0.9,12.82-1.3c0,0.86,0,1.72,0,2.58c-3.25,0.3-6.5,0.63-9.75,0.97
				c0,2.64,0,5.28,0,7.91c3-0.32,6.01-0.62,9.01-0.91c0,0.85,0,1.7,0,2.54c-3,0.28-6.01,0.59-9.01,0.91c0,3.59,0,7.18,0,10.77
				c-1.02,0.11-2.05,0.22-3.07,0.33C63.53,41.79,63.53,33.86,63.53,25.92z"/>
			<path class="st0" d="M84.09,25.85c0.04,1.06-0.74,1.97-1.98,2.07c-1.1,0.09-1.87-0.69-1.87-1.75c0-1.1,0.81-2.01,1.94-2.11
				C83.35,23.97,84.09,24.76,84.09,25.85z M80.63,48.04c0-5.7,0-11.4,0-17.1c1.04-0.09,2.07-0.18,3.11-0.26c0,5.7,0,11.4,0,17.1
				C82.71,47.87,81.67,47.95,80.63,48.04z"/>
			<path class="st0" d="M88.48,44.25c0.92,0.54,2.54,1.06,4.1,0.97c2.26-0.13,3.32-1.31,3.32-2.72c0-1.48-0.88-2.26-3.18-2.97
				c-3.07-0.91-4.52-2.5-4.52-4.55c0-2.75,2.23-5.18,5.9-5.39c1.73-0.1,3.25,0.33,4.2,0.86c-0.26,0.76-0.52,1.53-0.78,2.29
				c-0.67-0.39-1.91-0.9-3.5-0.81c-1.84,0.1-2.86,1.23-2.86,2.5c0,1.41,1.02,1.98,3.25,2.71c2.97,0.97,4.49,2.4,4.49,4.95
				c0,3.01-2.33,5.2-6.39,5.44c-1.87,0.11-3.6-0.23-4.8-0.85C87.96,45.86,88.22,45.06,88.48,44.25z"/>
			<path class="st0" d="M102.89,21.63c1.04-0.03,2.07-0.05,3.11-0.07c0,3.56,0,7.11,0,10.67c0.02,0,0.05,0,0.07,0
				c0.49-0.89,1.27-1.68,2.23-2.22c0.92-0.54,2.01-0.89,3.18-0.89c2.3,0,5.97,1.52,5.97,7.42c0,3.39,0,6.78,0,10.17
				c-1.04-0.03-2.07-0.06-3.11-0.08c0-3.27,0-6.55,0-9.82c0-2.75-1.02-5.12-3.96-5.12c-2.01,0-3.6,1.43-4.17,3.14
				c-0.18,0.43-0.21,0.89-0.21,1.49c0,3.44,0,6.88,0,10.31c-1.04,0.02-2.07,0.04-3.11,0.07C102.89,38.35,102.89,29.99,102.89,21.63z
				"/>
		</g>
	</g>
	<path class="st0" d="M13.65,37.21c-3.35,0.75-6.92-0.27-9.34-2.6c-1.18-1.12-2.17-2.52-2.73-4.08c-0.56-1.57-0.71-3.26-0.47-4.88
		c0.48-3.24,2.29-6.15,4.82-8.12c1.26-1,2.72-1.74,4.28-2.16c1.56-0.42,3.21-0.47,4.79-0.18c0.35,0.06,0.58,0.4,0.52,0.74
		c-0.06,0.34-0.39,0.57-0.73,0.52l-0.01,0c-1.4-0.22-2.84-0.15-4.2,0.24c-1.36,0.4-2.64,1.07-3.73,1.98
		c-2.21,1.79-3.76,4.43-4.1,7.2c-0.18,1.38-0.02,2.78,0.47,4.06c0.49,1.28,1.32,2.41,2.34,3.35c2.03,1.81,5.02,2.47,7.56,1.76
		c0.6-0.17,1.22,0.18,1.38,0.78c0.17,0.6-0.18,1.22-0.78,1.38C13.69,37.2,13.67,37.2,13.65,37.21L13.65,37.21z"/>
	<path class="st0" d="M68.48,14.6c0,0,4.34-2,6.32-6.77C76.78,3.06,80.74,13.61,68.48,14.6z"/>
	<path class="st0" d="M70.17,18.45c0,0,10.56,0.2,10.21,5.88C80.02,30.02,75.66,20.54,70.17,18.45z"/>
	<path class="st0" d="M78.54,16.44c0,0,5.16-4.13,6.11-2.04C85.59,16.49,78.54,16.44,78.54,16.44z"/>
</g>
</svg>
